<svg width="154" height="29" viewBox="0 0 154 29" fill="none" xmlns="http://www.w3.org/2000/svg">
<g filter="url(#filter0_d_461_20573)">
<path fill-rule="evenodd" clip-rule="evenodd" d="M12.5 2.72011L11.6821 3.17816V4.27756V8.55534V9.27002L11.0503 9.60424L7.27175 11.6034V16.3962L11.0503 18.3953L11.6821 18.7295V19.4442V20.6109V22.1665V24.8218L12.5 25.2799L13.3182 24.8217V22.1664V20.6109V19.4442V18.7295L13.9499 18.3953L17.7285 16.3962V15.5553H20.1018V17.1108V17.8255L19.4701 18.1598L15.6915 20.1589V20.6109V22.1664V23.4927L22.6267 19.6089V8.39106L15.6915 4.50734V7.84061L19.4701 9.83972L20.1018 10.1739V10.8886V12.4442H17.7285V11.6033L13.9499 9.6042L13.3182 9.26998V8.55529V4.27752V3.17829L12.5 2.72011ZM2.37331 8.39106L9.30875 4.50721V7.84065L5.53015 9.83977L4.89843 10.174V10.8887V17.1109V17.8256L5.53015 18.1598L9.30875 20.1589V20.6109V22.1665V23.4928L2.37331 19.6089V8.39106ZM25 7L12.5 0L0 7V21L12.5 28L25 21V7Z" fill="#2F66F6"/>
</g>
<path d="M44.685 12.024C44.058 9.49702 42.025 8.05302 39.099 8.05302C35.394 8.05302 33 10.485 33 14.285C33 16.147 33.608 17.819 34.71 18.902C35.755 19.966 37.313 20.536 39.137 20.536C41.341 20.536 43.07 19.757 44.02 18.351C44.381 17.8 44.609 17.287 44.818 16.47L41.322 15.919C41.246 16.356 41.151 16.546 40.98 16.793C40.6 17.325 39.916 17.629 39.175 17.629C37.655 17.629 36.686 16.299 36.686 14.247C36.686 12.157 37.598 10.941 39.137 10.941C39.821 10.941 40.353 11.169 40.733 11.606C40.98 11.891 41.094 12.157 41.265 12.727L44.685 12.024Z" fill="#2F66F6"/>
<path d="M52.0537 20.536C55.8347 20.536 58.3427 18.028 58.3427 14.247C58.3427 10.485 55.9107 8.07202 52.0727 8.07202C48.2347 8.07202 45.8027 10.485 45.8027 14.285C45.8027 18.104 48.2347 20.536 52.0537 20.536ZM52.0917 10.922C53.7067 10.922 54.6757 12.176 54.6757 14.304C54.6757 16.413 53.7257 17.648 52.0727 17.648C50.4197 17.648 49.4317 16.375 49.4317 14.266C49.4317 12.176 50.4197 10.922 52.0917 10.922Z" fill="#2F66F6"/>
<path d="M59.9358 4.29102V7.14102H63.7928V4.29102H59.9358ZM59.8788 8.50902C59.9928 9.36402 60.0308 10.143 60.0308 11.378V17.23C60.0308 18.446 59.9928 19.168 59.8788 20.099H63.8498C63.7548 19.282 63.6978 18.256 63.6978 17.23V11.378C63.6978 10.048 63.7358 9.28802 63.8498 8.50902H59.8788Z" fill="#2F66F6"/>
<path d="M69.8049 20.099C69.6909 19.111 69.6529 18.313 69.6529 17.23V13.392C70.4699 12.062 71.4199 11.397 72.4839 11.397C73.0539 11.397 73.4909 11.587 73.7379 11.929C73.9659 12.252 74.0419 12.575 74.0419 13.335V17.23C74.0419 18.389 74.0039 19.187 73.8899 20.099H77.8419C77.7469 19.301 77.6899 18.351 77.6899 17.249V12.48C77.6899 10.979 77.3669 10.048 76.6069 9.28802C75.9039 8.58502 74.8589 8.22402 73.5479 8.22402C71.9899 8.22402 70.8309 8.69902 69.6339 9.83902C69.6339 9.70602 69.6529 9.42102 69.6529 9.30702V8.50902H65.8719C65.9859 9.26902 66.0239 10.067 66.0239 11.378V17.23C66.0239 18.408 65.9859 19.206 65.8719 20.099H69.8049Z" fill="#2F66F6"/>
<path d="M83.7391 20.099C83.6251 19.168 83.5871 18.427 83.5871 17.23V13.392C84.1191 12.1 84.9931 11.359 86.0191 11.359C86.4751 11.359 86.8551 11.53 87.0641 11.834C87.3111 12.157 87.3871 12.518 87.3871 13.316V17.23C87.3871 18.446 87.3491 19.244 87.2351 20.099H91.1871C91.0731 19.187 91.0351 18.389 91.0351 17.249V13.373C91.5101 12.1 92.3841 11.34 93.3531 11.34C94.4361 11.34 94.8541 11.891 94.8541 13.316V17.23C94.8541 18.522 94.8161 19.206 94.7021 20.099H98.6541C98.5401 19.206 98.5021 18.427 98.5021 17.249V12.537C98.5021 9.66802 97.1151 8.18602 94.3981 8.18602C92.7451 8.18602 91.5861 8.68002 90.4081 9.83902C90.1611 9.36402 89.9711 9.13602 89.6291 8.88902C89.0021 8.43302 88.1851 8.20502 87.1971 8.20502C85.6961 8.20502 84.5371 8.69902 83.5681 9.76302C83.5681 9.72502 83.5681 9.68702 83.5681 9.66802C83.5681 9.61102 83.5681 9.57302 83.5681 9.57302C83.5871 9.38302 83.5871 9.38302 83.5871 9.30702V8.50902H79.8251C79.9391 9.25002 79.9771 9.93402 79.9771 11.378V17.23C79.9771 18.427 79.9391 19.225 79.8251 20.099H83.7391Z" fill="#2F66F6"/>
<path d="M106.382 20.536C110.163 20.536 112.671 18.028 112.671 14.247C112.671 10.485 110.239 8.07202 106.401 8.07202C102.563 8.07202 100.131 10.485 100.131 14.285C100.131 18.104 102.563 20.536 106.382 20.536ZM106.42 10.922C108.035 10.922 109.004 12.176 109.004 14.304C109.004 16.413 108.054 17.648 106.401 17.648C104.748 17.648 103.76 16.375 103.76 14.266C103.76 12.176 104.748 10.922 106.42 10.922Z" fill="#2F66F6"/>
<path d="M118.14 20.099C118.026 19.111 117.988 18.313 117.988 17.23V13.392C118.805 12.062 119.755 11.397 120.819 11.397C121.389 11.397 121.826 11.587 122.073 11.929C122.301 12.252 122.377 12.575 122.377 13.335V17.23C122.377 18.389 122.339 19.187 122.225 20.099H126.177C126.082 19.301 126.025 18.351 126.025 17.249V12.48C126.025 10.979 125.702 10.048 124.942 9.28802C124.239 8.58502 123.194 8.22402 121.883 8.22402C120.325 8.22402 119.166 8.69902 117.969 9.83902C117.969 9.70602 117.988 9.42102 117.988 9.30702V8.50902H114.207C114.321 9.26902 114.359 10.067 114.359 11.378V17.23C114.359 18.408 114.321 19.206 114.207 20.099H118.14Z" fill="#2F66F6"/>
<path d="M139.712 15.368C139.693 15.178 139.693 15.064 139.693 14.988C139.636 13.905 139.56 13.107 139.408 12.499C138.743 9.66802 136.672 8.05302 133.708 8.05302C130.079 8.05302 127.666 10.542 127.666 14.304C127.666 16.185 128.274 17.8 129.395 18.94C130.478 20.023 131.941 20.555 133.803 20.555C135.684 20.555 137.204 20.004 138.287 18.94C138.819 18.408 139.104 17.971 139.541 16.983L136.235 16.052C136.083 16.546 135.95 16.755 135.665 17.021C135.171 17.477 134.506 17.724 133.746 17.724C132.245 17.724 131.352 16.907 131.162 15.368H139.712ZM131.219 12.746C131.542 11.492 132.359 10.884 133.708 10.884C135.019 10.884 135.836 11.53 136.102 12.746H131.219Z" fill="#2F66F6"/>
<path d="M145.06 19.073L144.661 19.89C144.376 20.46 143.844 20.783 143.122 20.783C142.628 20.783 142.267 20.688 141.64 20.365L141.222 23.386C142.267 23.614 142.989 23.709 143.825 23.709C145.991 23.709 147.359 22.892 148.119 21.106L152.47 11.055C153.135 9.49702 153.135 9.49702 153.61 8.50902H149.487C149.373 9.17402 149.202 9.72502 148.67 11.036L146.979 15.349L145.231 10.96C144.832 9.93402 144.585 9.11702 144.49 8.50902H140.367C140.614 8.98402 140.69 9.15502 141.507 11.055L145.06 19.073Z" fill="#2F66F6"/>
<defs>
<filter id="filter0_d_461_20573" x="0" y="0" width="25" height="29" filterUnits="userSpaceOnUse" color-interpolation-filters="sRGB">
<feFlood flood-opacity="0" result="BackgroundImageFix"/>
<feColorMatrix in="SourceAlpha" type="matrix" values="0 0 0 0 0 0 0 0 0 0 0 0 0 0 0 0 0 0 127 0" result="hardAlpha"/>
<feOffset dy="1"/>
<feColorMatrix type="matrix" values="0 0 0 0 0.184314 0 0 0 0 0.4 0 0 0 0 0.964706 0 0 0 0.3 0"/>
<feBlend mode="normal" in2="BackgroundImageFix" result="effect1_dropShadow_461_20573"/>
<feBlend mode="normal" in="SourceGraphic" in2="effect1_dropShadow_461_20573" result="shape"/>
</filter>
</defs>
</svg>
